# xmcd
#
# Track frame offsets:
# 150
# 22935
# 36885
# 52235
# 76855
# 89575
# 105900
# 133075
# 150180
# 160815
# 194010
# 214615
# 234785
# 256825
# 299300
#
# Disc length: 4224 seconds
#
#
# Revision: 0
# Processed by: cddbd v1.5.1PL0 Copyright (c) Steve Scherf et al.
# Submitted via: FreeRIP 2.80 
#
DISCID=bc107e0f
DTITLE=Boondawgle - Boondawgle
DYEAR=2000
DGENRE=Indie
TTITLE0=Thrill is Gone
TTITLE1=Taxman
TTITLE2=Seeker
TTITLE3=Average Joe
TTITLE4=Back on the Train
TTITLE5=If I Don't be Home by Morning
TTITLE6=Walk in the Park
TTITLE7=Funky B.
TTITLE8=I Got a Line on You
TTITLE9=Black 'n White
TTITLE10=Ambiguity
TTITLE11=I'm Losing You
TTITLE12=Bus
TTITLE13=Long Black Veil
TTITLE14=Show Me
EXTD=
EXTT0=
EXTT1=
EXTT2=
EXTT3=
EXTT4=
EXTT5=
EXTT6=
EXTT7=
EXTT8=
EXTT9=
EXTT10=
EXTT11=
EXTT12=
EXTT13=
EXTT14=
PLAYORDER=
